<svg version="1.1" viewBox="0.0 0.0 720.0 540.0" fill="none" stroke="none" stroke-linecap="square" stroke-miterlimit="10" xmlns:xlink="http://www.w3.org/1999/xlink" xmlns="http://www.w3.org/2000/svg"><clipPath id="p.0"><path d="m0 0l720.0 0l0 540.0l-720.0 0l0 -540.0z" clip-rule="nonzero"/></clipPath><g clip-path="url(#p.0)"><path fill="#000000" fill-opacity="0.0" d="m0 0l720.0 0l0 540.0l-720.0 0z" fill-rule="evenodd"/><path fill="#000000" fill-opacity="0.0" d="m392.3349 169.73604c-11.542664 -20.19484 -53.492798 -36.23561 -67.507904 -17.671082c-27.19989 36.029266 -5.7583923 90.72008 0.48492432 135.42986c2.4250183 17.36621 4.8500366 34.732452 7.2750854 52.098663c1.1383362 8.151978 -4.7369385 25.594208 3.4150085 24.455872c4.6214905 -0.6453552 3.4257507 -8.724976 5.808838 -12.736877c9.906036 -16.676758 12.720612 -39.62863 28.70343 -50.619232" fill-rule="evenodd"/><path stroke="#000000" stroke-width="16.0" stroke-linejoin="round" stroke-linecap="butt" d="m392.3349 169.73604c-11.542664 -20.19484 -53.492798 -36.23561 -67.507904 -17.671082c-27.19989 36.029266 -5.7583923 90.72008 0.48492432 135.42986c2.4250183 17.36621 4.8500366 34.732452 7.2750854 52.098663c1.1383362 8.151978 -4.7369385 25.594208 3.4150085 24.455872c4.6214905 -0.6453552 3.4257507 -8.724976 5.808838 -12.736877c9.906036 -16.676758 12.720612 -39.62863 28.70343 -50.619232" fill-rule="evenodd"/></g></svg>