<svg version="1.1" viewBox="0.0 0.0 720.0 540.0" fill="none" stroke="none" stroke-linecap="square" stroke-miterlimit="10" xmlns:xlink="http://www.w3.org/1999/xlink" xmlns="http://www.w3.org/2000/svg"><clipPath id="p.0"><path d="m0 0l720.0 0l0 540.0l-720.0 0l0 -540.0z" clip-rule="nonzero"/></clipPath><g clip-path="url(#p.0)"><path fill="#000000" fill-opacity="0.0" d="m0 0l720.0 0l0 540.0l-720.0 0z" fill-rule="evenodd"/><path fill="#000000" fill-opacity="0.0" d="m324.7126 183.58005c9.091949 -13.637909 19.343689 -26.466003 28.984253 -39.721786c4.4749146 -6.1529846 7.4233704 -17.17585 15.031494 -17.17585c4.7740784 0 2.4356384 9.2462845 3.2204895 13.955391c2.7967224 16.780426 9.191498 32.776398 12.881897 49.383194c9.889557 44.50299 21.501099 104.10782 -10.734924 136.34384c-10.045654 10.045624 -25.853912 -15.206543 -32.207336 -27.913391" fill-rule="evenodd"/><path stroke="#000000" stroke-width="16.0" stroke-linejoin="round" stroke-linecap="butt" d="m324.7126 183.58005c9.091949 -13.637909 19.343689 -26.466003 28.984253 -39.721786c4.4749146 -6.1529846 7.4233704 -17.17585 15.031494 -17.17585c4.7740784 0 2.4356384 9.2462845 3.2204895 13.955391c2.7967224 16.780426 9.191498 32.776398 12.881897 49.383194c9.889557 44.50299 21.501099 104.10782 -10.734924 136.34384c-10.045654 10.045624 -25.853912 -15.206543 -32.207336 -27.913391" fill-rule="evenodd"/></g></svg>