<svg version="1.1" viewBox="0.0 0.0 720.0 540.0" fill="none" stroke="none" stroke-linecap="square" stroke-miterlimit="10" xmlns:xlink="http://www.w3.org/1999/xlink" xmlns="http://www.w3.org/2000/svg"><clipPath id="p.0"><path d="m0 0l720.0 0l0 540.0l-720.0 0l0 -540.0z" clip-rule="nonzero"/></clipPath><g clip-path="url(#p.0)"><path fill="#000000" fill-opacity="0.0" d="m0 0l720.0 0l0 540.0l-720.0 0z" fill-rule="evenodd"/><path fill="#000000" fill-opacity="0.0" d="m377.892 136.09317c-18.739227 8.328552 -35.804077 20.004135 -53.677155 30.057755c-9.907715 5.5730743 -26.465637 5.320755 -30.060364 16.10498c-2.3217773 6.9652863 10.622864 10.229294 15.02887 16.102356c16.02768 21.364456 32.91385 42.2993 46.165344 65.488205c13.498138 23.620514 24.331268 48.667267 36.498688 73.0c3.221222 6.441864 3.222046 22.546448 9.664032 19.32544c4.6158752 -2.3079224 4.0442505 -10.4348755 8.587921 -12.881866c30.301971 -16.319305 60.009613 -35.668427 93.39896 -44.015747" fill-rule="evenodd"/><path stroke="#000000" stroke-width="16.0" stroke-linejoin="round" stroke-linecap="butt" d="m377.892 136.09317c-18.739227 8.328552 -35.804077 20.004135 -53.677155 30.057755c-9.907715 5.5730743 -26.465637 5.320755 -30.060364 16.10498c-2.3217773 6.9652863 10.622864 10.229294 15.02887 16.102356c16.02768 21.364456 32.91385 42.2993 46.165344 65.488205c13.498138 23.620514 24.331268 48.667267 36.498688 73.0c3.221222 6.441864 3.222046 22.546448 9.664032 19.32544c4.6158752 -2.3079224 4.0442505 -10.4348755 8.587921 -12.881866c30.301971 -16.319305 60.009613 -35.668427 93.39896 -44.015747" fill-rule="evenodd"/><path fill="#000000" fill-opacity="0.0" d="m404.73227 219.8307c-35.387024 7.077408 -62.352142 36.354233 -93.398926 54.750656c-11.57254 6.8571777 -35.427826 5.871277 -35.427826 19.322845c0 5.060486 10.037231 1.315033 15.02887 2.1469727c18.344818 3.0574646 37.107147 4.8563843 54.75064 10.737549" fill-rule="evenodd"/><path stroke="#000000" stroke-width="16.0" stroke-linejoin="round" stroke-linecap="butt" d="m404.73227 219.8307c-35.387024 7.077408 -62.352142 36.354233 -93.398926 54.750656c-11.57254 6.8571777 -35.427826 5.871277 -35.427826 19.322845c0 5.060486 10.037231 1.315033 15.02887 2.1469727c18.344818 3.0574646 37.107147 4.8563843 54.75064 10.737549" fill-rule="evenodd"/></g></svg>