<svg version="1.1" viewBox="0.0 0.0 720.0 540.0" fill="none" stroke="none" stroke-linecap="square" stroke-miterlimit="10" xmlns:xlink="http://www.w3.org/1999/xlink" xmlns="http://www.w3.org/2000/svg"><clipPath id="p.0"><path d="m0 0l720.0 0l0 540.0l-720.0 0l0 -540.0z" clip-rule="nonzero"/></clipPath><g clip-path="url(#p.0)"><path fill="#000000" fill-opacity="0.0" d="m0 0l720.0 0l0 540.0l-720.0 0z" fill-rule="evenodd"/><path fill="#000000" fill-opacity="0.0" d="m291.26437 211.27965c0 -22.946701 -0.3861084 -46.24167 4.2939453 -68.70604c1.0775452 -5.172241 4.4676514 9.639099 7.514435 13.955383c7.727295 10.947006 15.390686 21.95166 22.545929 33.280838c25.64096 40.59816 55.7619 80.96559 66.55908 127.75328c2.2531128 9.763519 6.0120544 22.044281 0 30.060364c-7.3029175 9.737213 -24.671692 23.635406 -33.27823 15.02887c-8.238495 -8.238464 -4.862152 -31.528534 6.4409485 -34.35431c18.887848 -4.721985 36.669006 13.695709 55.824127 17.178467c18.321442 3.3311768 37.202362 -2.1469727 55.824158 -2.1469727" fill-rule="evenodd"/><path stroke="#000000" stroke-width="16.0" stroke-linejoin="round" stroke-linecap="butt" d="m291.26437 211.27965c0 -22.946701 -0.3861084 -46.24167 4.2939453 -68.70604c1.0775452 -5.172241 4.4676514 9.639099 7.514435 13.955383c7.727295 10.947006 15.390686 21.95166 22.545929 33.280838c25.64096 40.59816 55.7619 80.96559 66.55908 127.75328c2.2531128 9.763519 6.0120544 22.044281 0 30.060364c-7.3029175 9.737213 -24.671692 23.635406 -33.27823 15.02887c-8.238495 -8.238464 -4.862152 -31.528534 6.4409485 -34.35431c18.887848 -4.721985 36.669006 13.695709 55.824127 17.178467c18.321442 3.3311768 37.202362 -2.1469727 55.824158 -2.1469727" fill-rule="evenodd"/></g></svg>