<svg version="1.1" viewBox="0.0 0.0 720.0 540.0" fill="none" stroke="none" stroke-linecap="square" stroke-miterlimit="10" xmlns:xlink="http://www.w3.org/1999/xlink" xmlns="http://www.w3.org/2000/svg"><clipPath id="p.0"><path d="m0 0l720.0 0l0 540.0l-720.0 0l0 -540.0z" clip-rule="nonzero"/></clipPath><g clip-path="url(#p.0)"><path fill="#000000" fill-opacity="0.0" d="m0 0l720.0 0l0 540.0l-720.0 0z" fill-rule="evenodd"/><path fill="#000000" fill-opacity="0.0" d="m351.388 173.91502c15.046783 0 30.271362 0.4675598 45.089233 -2.146988c8.2265625 -1.4515381 20.954437 -11.765671 24.690308 -4.2939606c4.6158752 9.231735 -16.532043 12.559982 -25.763794 17.175858c-17.787018 8.893509 -34.148865 20.402618 -51.532806 30.060364c-16.329712 9.072052 -38.53006 15.789734 -45.089233 33.280838c-4.445923 11.855759 17.783813 18.16661 27.913391 25.763779c13.40387 10.052887 20.460968 30.809235 17.175842 47.23883c-2.1974792 10.990051 -21.798737 13.823822 -32.204712 9.661438c-5.2541504 -2.101654 -6.742584 -10.615051 -5.3700867 -16.10498c2.1767883 -8.707184 16.665314 -14.748718 24.692902 -10.734924c8.179291 4.08963 14.474731 13.955383 23.619446 13.955383" fill-rule="evenodd"/><path stroke="#000000" stroke-width="16.0" stroke-linejoin="round" stroke-linecap="butt" d="m351.388 173.91502c15.046783 0 30.271362 0.4675598 45.089233 -2.146988c8.2265625 -1.4515381 20.954437 -11.765671 24.690308 -4.2939606c4.6158752 9.231735 -16.532043 12.559982 -25.763794 17.175858c-17.787018 8.893509 -34.148865 20.402618 -51.532806 30.060364c-16.329712 9.072052 -38.53006 15.789734 -45.089233 33.280838c-4.445923 11.855759 17.783813 18.16661 27.913391 25.763779c13.40387 10.052887 20.460968 30.809235 17.175842 47.23883c-2.1974792 10.990051 -21.798737 13.823822 -32.204712 9.661438c-5.2541504 -2.101654 -6.742584 -10.615051 -5.3700867 -16.10498c2.1767883 -8.707184 16.665314 -14.748718 24.692902 -10.734924c8.179291 4.08963 14.474731 13.955383 23.619446 13.955383" fill-rule="evenodd"/></g></svg>