<svg version="1.1" viewBox="0.0 0.0 720.0 540.0" fill="none" stroke="none" stroke-linecap="square" stroke-miterlimit="10" xmlns:xlink="http://www.w3.org/1999/xlink" xmlns="http://www.w3.org/2000/svg"><clipPath id="p.0"><path d="m0 0l720.0 0l0 540.0l-720.0 0l0 -540.0z" clip-rule="nonzero"/></clipPath><g clip-path="url(#p.0)"><path fill="#000000" fill-opacity="0.0" d="m0 0l720.0 0l0 540.0l-720.0 0z" fill-rule="evenodd"/><path fill="#000000" fill-opacity="0.0" d="m374.6719 148.15224c25.347015 34.399506 50.55774 72.612366 56.897644 114.86876c3.0796509 20.526154 9.980621 44.06897 0 62.26773c-17.086578 31.155823 -65.39035 33.487946 -100.91339 34.35431c-17.598846 0.42922974 -47.236206 -6.01532 -47.236206 -23.619415" fill-rule="evenodd"/><path stroke="#000000" stroke-width="16.0" stroke-linejoin="round" stroke-linecap="butt" d="m374.6719 148.15224c25.347015 34.399506 50.55774 72.612366 56.897644 114.86876c3.0796509 20.526154 9.980621 44.06897 0 62.26773c-17.086578 31.155823 -65.39035 33.487946 -100.91339 34.35431c-17.598846 0.42922974 -47.236206 -6.01532 -47.236206 -23.619415" fill-rule="evenodd"/><path fill="#000000" fill-opacity="0.0" d="m305.96326 206.12335c47.66501 28.592026 95.76236 57.034332 139.5643 91.25198c17.222992 13.454407 32.972473 28.755615 50.456696 41.868744c7.861511 5.8961487 21.58081 25.426086 24.692932 16.105011c3.8012695 -11.385345 -10.58548 -21.548523 -16.105011 -32.207367c-10.393097 -20.070312 -19.690002 -40.825897 -26.83728 -62.2677" fill-rule="evenodd"/><path stroke="#000000" stroke-width="16.0" stroke-linejoin="round" stroke-linecap="butt" d="m305.96326 206.12335c47.66501 28.592026 95.76236 57.034332 139.5643 91.25198c17.222992 13.454407 32.972473 28.755615 50.456696 41.868744c7.861511 5.8961487 21.58081 25.426086 24.692932 16.105011c3.8012695 -11.385345 -10.58548 -21.548523 -16.105011 -32.207367c-10.393097 -20.070312 -19.690002 -40.825897 -26.83728 -62.2677" fill-rule="evenodd"/></g></svg>